<svg width="30" height="30" viewBox="0 0 30 30" fill="none" xmlns="http://www.w3.org/2000/svg">
    <rect width="30" height="30" rx="7" fill="black"/>
    <path d="M15 9.14062C11.0937 9.14062 7.75781 11.5703 6.40625 15C7.75781 18.4297 11.0937 20.8594 15 20.8594C15.2812 20.8594 15.5625 20.8594 15.8437 20.8203C15.8033 20.575 15.7824 20.3268 15.7812 20.0781C15.7812 19.7969 15.8125 19.5156 15.8594 19.2344C15.5781 19.2656 15.2891 19.2969 15 19.2969C12.0625 19.2969 9.39844 17.625 8.10937 15C8.74082 13.7107 9.72133 12.6244 10.9394 11.8646C12.1575 11.1049 13.5644 10.7021 15 10.7021C16.4356 10.7021 17.8425 11.1049 19.0606 11.8646C20.2787 12.6244 21.2592 13.7107 21.8906 15C21.7969 15.1875 21.6875 15.3516 21.5859 15.5312C22.1016 15.6562 22.5938 15.8672 23.0391 16.1719C23.25 15.7812 23.4375 15.3906 23.5937 15C22.2422 11.5703 18.9062 9.14062 15 9.14062ZM15 12.6562C13.7031 12.6562 12.6562 13.7031 12.6562 15C12.6562 16.2969 13.7031 17.3438 15 17.3438C16.2969 17.3438 17.3437 16.2969 17.3437 15C17.3437 13.7031 16.2969 12.6562 15 12.6562ZM20.4687 17.3438V18.9062H17.3437V20.4688H20.4687V22.0312L22.8125 19.6875L20.4687 17.3438Z" fill="white"/>
</svg>
