<svg xmlns="http://www.w3.org/2000/svg" xmlns:xlink="http://www.w3.org/1999/xlink" fill="none" version="1.1" width="17.7492733001709" height="13.265000343322754" viewBox="0 0 17.7492733001709 13.265000343322754"><g><path d="M1.687,0.66Q1.671,0.59,1.643,0.523Q1.615,0.457,1.577,0.397Q1.538,0.337,1.49,0.283Q1.442,0.229,1.386,0.185Q1.33,0.14,1.266,0.105Q1.204,0.0710003,1.136,0.0470002Q1.068,0.0240002,0.997,0.0120001Q0.927,0,0.855,0Q0.755,0,0.659,0.023Q0.589,0.039,0.523,0.0669999Q0.457,0.095,0.397,0.133Q0.336,0.172,0.283,0.22Q0.229,0.268,0.185,0.324Q0.14,0.38,0.105,0.444Q0.0710003,0.506,0.0470002,0.574Q0.0240002,0.642,0.0120001,0.712Q0,0.783,0,0.855Q0,0.955,0.0220001,1.05L2.426,11.283Q2.63,12.153,3.332,12.709Q4.032,13.265,4.927,13.265L14.177,13.265Q15.088,13.265,15.797,12.69Q16.504,12.114,16.691,11.222L17.688,6.457Q17.938,5.26,17.168,4.311Q16.396,3.361,15.173,3.361L2.712,3.361Q2.517,3.361,2.342,3.446L1.687,0.66ZM2.723,5.071L4.091,10.891Q4.159,11.183,4.393,11.369Q4.628,11.555,4.927,11.555L14.177,11.555Q14.481,11.555,14.717,11.362Q14.955,11.17,15.017,10.872L16.014,6.107Q16.098,5.707,15.84,5.389Q15.582,5.071,15.173,5.071L2.723,5.071Z" fill-rule="evenodd" fill="#000000" fill-opacity="1" style="mix-blend-mode:passthrough"/></g></svg>
